<?xml version="1.0" encoding="utf-8"?>
<!-- Generator: Adobe Illustrator 15.0.1, SVG Export Plug-In  -->
<!DOCTYPE svg PUBLIC "-//W3C//DTD SVG 1.1//EN" "http://www.w3.org/Graphics/SVG/1.1/DTD/svg11.dtd" [
	<!ENTITY ns_flows "http://ns.adobe.com/Flows/1.0/">
]>
<svg version="1.1"
	 xmlns="http://www.w3.org/2000/svg" xmlns:xlink="http://www.w3.org/1999/xlink" xmlns:a="http://ns.adobe.com/AdobeSVGViewerExtensions/3.0/"
	 x="0px" y="0px" width="283px" height="425px" viewBox="-14.673 -6 283 425" enable-background="new -14.673 -6 283 425"
	 xml:space="preserve">
<defs>
</defs>
<line fill="#FFFFFF" x1="91.473" y1="80.656" x2="81.741" y2="77.753"/>
<path fill="#FFFFFF" d="M102.916,399.245V8.55l98.697,54.047c12.736,6.974,21.684,14.022,27.513,21.355
	c5.559,6.998,9.857,16.62,13.02,28.854c3.078,11.904,4.586,25.292,4.586,40.405c0,13.172-1.152,24.37-3.49,33.743
	c-2.392,9.572-5.759,17.453-10.188,23.663c-2.913,4.076-7.03,7.592-12.465,10.562c4.372,3,7.46,5.975,9.359,8.965
	c1.265,1.969,3.08,6.212,5.411,12.649c2.285,6.309,3.789,11.135,4.541,14.551l14.419,63.418l-36.959,19.166l-22.301-77.818
	c-3.112-11.105-5.944-18.352-8.475-21.612c-3.525-4.325-7.626-6.34-12.345-5.932l-4.714,0.402V364.72L102.916,399.245z"/>
<path d="M103.02,144.159l26.95,4.235l0,0l0,0l15.245,2.313c6.125,23.895,19.524,39.673,32.939,40.13
	c11.113,0.402,20.716-9.795,25.502-26.135l1.368-4.495l-28.35-4.206l-0.193-46.521l28.388,8.517l-1.412-5.138
	c-4.935-18.534-14.643-33.121-25.815-37.741c-13.466-5.563-26.748,4.243-32.643,25.512l-15.349-4.489l-26.631-7.876V144.159z"/>
<path d="M223.419,130.24l-9.028-6.056c0.773-5.814,2.249-9.942,4.403-12.379c2.119-2.397,5.062-2.87,8.773-1.479
	c4.132,1.55,7.036,4.271,8.796,8.162c1.734,3.834,2.593,8.16,2.593,13.015c0,2.849-0.348,5.327-1.047,7.447
	c-0.702,2.132-1.771,3.896-3.214,5.293c1.169,0.929,2.057,1.89,2.668,2.883c0.982,1.589,1.743,3.543,2.282,5.862
	c0.536,2.311,0.805,4.98,0.805,8.019c0,3.814-0.443,7.401-1.333,10.782c-0.898,3.407-2.202,5.976-3.926,7.708
	c-1.748,1.756-4.082,2.504-7.032,2.219c-2.947-0.285-5.319-1.266-7.085-2.953c-1.789-1.71-3.278-4.115-4.458-7.216
	c-1.19-3.128-2.113-7.008-2.761-11.638l9.563-0.934c0.362,3.982,0.922,6.784,1.678,8.406c0.751,1.613,1.7,2.498,2.843,2.661
	c1.19,0.169,2.174-0.623,2.953-2.367c0.775-1.732,1.16-4.136,1.16-7.218c0-3.144-0.371-5.655-1.117-7.541
	c-0.75-1.898-1.775-2.995-3.084-3.285c-0.702-0.155-1.675,0.007-2.923,0.492l0.47-13.706c0.505,0.295,0.896,0.479,1.177,0.556
	c1.175,0.316,2.146-0.217,2.92-1.594c0.769-1.368,1.151-3.133,1.151-5.303c0-2.077-0.286-3.825-0.859-5.25
	c-0.577-1.432-1.374-2.317-2.396-2.653c-1.06-0.348-1.926,0.055-2.597,1.215C224.12,124.555,223.661,126.838,223.419,130.24z"/>
<polygon fill="#4FB168" points="130.665,128.354 135.618,121.809 138.075,132.54 "/>
<polygon fill="#4FB168" points="111.789,111.424 106.484,118.875 103.073,107.208 "/>
<path fill="#4FB168" d="M108.747,114.068c0.966-9.319,6.37-15.079,12.69-13.25c6.102,1.765,11.003,10.052,11.845,19.222l3.306,0.805
	c-0.853-12.009-7.166-23.096-15.15-25.529c-8.356-2.545-15.544,5.228-16.554,17.811L108.747,114.068z"/>
<path fill="#4FB168" d="M133.203,126.372c-1.033,8.374-5.828,14.006-11.766,12.928c-6.14-1.112-11.417-8.987-12.595-18.41
	l-3.891-0.876c1.245,12.719,8.303,23.429,16.485,24.786c7.823,1.298,14.043-6.457,15.096-17.679L133.203,126.372z"/>
<path fill="#4FB168" d="M126.767,133.644c0,0-6.928-0.512-10.802-9.41c-3.348-7.682-1.189-18.795-1.189-18.795
	s8.613,1.977,11.655,8.613c2.99,6.52,1.835,18.314,1.835,18.314s-0.282-7.322-3.857-14.411c-2.971-5.897-7.146-7.694-7.146-7.694
	s3.651,2.269,6.691,9.178C126.208,124.555,126.767,133.644,126.767,133.644z"/>
<path fill="#FFFFFF" d="M68.663,398.495l-68.2-35.305l-0.054-29.962l-0.006-3.703c-0.018-10.058,1.29-16.371,3.955-18.979
	c2.712-2.652,8.094-2.698,16.424,0c8.713,2.822,14.767,6.645,17.849,11.414c3.136,4.858,4.738,13.117,4.762,24.714l0.061,3.751
	l0.038,18.955l25.133,11.852L68.663,398.495z M32.276,364.092l-0.035-17.744c-0.014-7.057-0.693-11.794-2.03-14.201
	c-1.327-2.386-4.415-4.474-9.167-6.235c-5.28-1.958-8.467-2.395-9.681-1.362c-1.204,1.024-1.798,4.637-1.787,10.845l0.033,18.011
	L32.276,364.092z"/>
<path fill="#FFFFFF" d="M0.32,282.861l68.129,17.372l0.033,15.248l-68.14-20.153L0.32,282.861z"/>
<path fill="#FFFFFF" d="M31.086,262.979l0.027,14.02c-5.575-1.194-9.205-3.524-11.009-6.993c-1.785-3.429-2.679-9.672-2.696-18.752
	c-0.019-9.884,1.049-16.468,3.225-19.787c2.206-3.364,6.507-4.857,13.074-4.43l34.589,2.253l0.033,15.235l-7.825-1.545l-0.058,0.385
	c5.666,3.504,8.575,10.608,8.599,21.23c0.033,15.426-5.878,21.827-17.187,19.327c-10.741-2.376-15.887-10.703-15.916-25.088
	c-0.019-9.602,1.828-15.226,5.602-16.899l0-0.247l-7.961-0.844c-3.706-0.392-6.116,0.123-7.288,1.531
	c-1.162,1.398-1.735,4.463-1.726,9.201C24.582,258.431,26.727,262.226,31.086,262.979z M43.953,255.686
	c0.016,8.044,2.421,12.497,7.317,13.378c3.479,0.625,5.795,0.183,6.903-1.347c1.117-1.537,1.671-5.085,1.659-10.636
	c-0.02-9.059-2.746-13.877-8.062-14.438C46.502,242.088,43.935,246.439,43.953,255.686z"/>
<path fill="#FFFFFF" d="M30.206,165.523l0.026,13.377c-0.393,0.111-0.687,0.193-0.883,0.248c-2.235,0.449-3.611,1.329-4.152,2.644
	c-0.537,1.311-0.801,4.41-0.792,9.301c0.015,7.005,1.868,10.487,5.625,10.449c2.609-0.026,4.178-0.677,4.679-1.954
	c0.503-1.282,0.901-5.607,1.192-12.988c0.388-9.955,1.483-16.532,3.299-19.744c1.837-3.245,5.667-5.24,11.624-5.978
	c6.585-0.816,11.297,0.749,13.98,4.759c2.723,4.07,4.111,11.789,4.136,23.114c0.023,10.884-1.201,18.317-3.649,22.261
	c-2.416,3.895-6.859,5.717-13.184,5.513l-1.335-0.043l-0.031-15.088c0.741,0.204,1.335,0.326,1.782,0.363
	c4.802,0.562,7.242-3.703,7.223-12.802c-0.02-9.4-2.459-13.901-7.221-13.509c-4.457,0.368-6.638,3.384-6.627,9.051
	c0.026,12.796-0.996,21.227-3.047,25.25c-2.028,3.979-6.179,5.851-12.302,5.66c-5.303-0.165-8.802-2-10.605-5.482
	c-1.784-3.443-2.678-9.996-2.696-19.681c-0.018-9.148,0.822-15.38,2.531-18.722C21.506,168.146,24.945,166.142,30.206,165.523z"/>
<path fill="#FFFFFF" d="M17.66,119.161l8.13-2.16l0.042,21.683l24.714-4.948c4.976-0.996,7.511-3.681,7.502-8.036
	c-0.011-4.785-3.085-6.447-9.072-5.021l-2.072,0.493l-0.024-12.221l2.621-0.715c2.437-0.665,4.55-1.155,6.327-1.468
	c8.518-1.483,12.944,4.561,12.974,18.184c0.029,13.583-5.598,21.274-16.39,22.995l-26.554,4.234l0.015,7.309l-8.134,1.117
	l-0.014-7.129l-9.471,1.51l-0.023-12.778l9.469-1.896L17.66,119.161z"/>
<path fill="#FFFFFF" d="M0,102.44l7.981-2.682l0.024,12.765l-7.983,2.356L0,102.44z M17.618,96.521L67.97,79.605l0.033,15.208
	l-50.361,14.865L17.618,96.521z"/>
<path fill="#FFFFFF" d="M46.889,34.393l-0.029-14.281l1.797-0.944l8.123-3.362c7.728-2.195,11.734,4.828,11.769,21.14
	c0.026,11.97-1.932,20.711-5.811,26.137c-3.799,5.313-11.225,9.982-21.841,13.908c-9.771,3.613-16.052,4.193-19.203,1.919
	c-3.092-2.229-4.625-8.24-4.644-18.065c-0.018-9.48,1.072-16.447,3.29-20.951c2.249-4.564,6.616-8.561,13.275-12.042l0.027,13.684
	c-5.498,2.652-8.174,7.732-8.159,15.302c0.01,5.375,0.864,8.391,2.574,9.055c1.728,0.671,6.036-0.404,13.126-3.319
	c7.139-2.935,11.778-5.66,13.71-8.105c1.954-2.471,2.932-6.947,2.917-13.406c-0.011-5.08-0.697-8.019-2.055-8.811
	C54.411,31.464,51.427,32.194,46.889,34.393z"/>
<polygon fill="#4FB168" points="86.496,407.999 83.251,406.31 83.251,1.69 86.496,0 "/>
<polygon fill="#4FB168" points="89.74,406.31 86.496,407.999 86.496,0 89.74,1.689 "/>
</svg>
