<!DOCTYPE svg PUBLIC "-//W3C//DTD SVG 1.1//EN" "http://www.w3.org/Graphics/SVG/1.1/DTD/svg11.dtd" [
	<!ENTITY ns_flows "http://ns.adobe.com/Flows/1.0/">
]><svg xmlns="http://www.w3.org/2000/svg" width="283" height="425" viewBox="-14.112 -9.085 283 425" enable-background="new -14.112 -9.085 283 425"><path fill="#010202" d="M240.554 258.045c-.754-3.425-2.262-8.265-4.554-14.591-2.337-6.454-4.157-10.71-5.425-12.683-1.905-2.999-5.002-5.982-9.385-8.99 5.449-2.978 9.577-6.503 12.498-10.591 4.441-6.227 7.817-14.129 10.216-23.727 2.345-9.399 3.499-20.627 3.499-33.835 0-15.154-1.511-28.578-4.597-40.515-3.171-12.267-7.482-21.916-13.057-28.932-5.845-7.354-14.817-14.421-27.587-21.413l-98.966-54.195v79.855l26.809 7.975 15.391 4.501c5.911-21.328 19.23-31.159 32.731-25.582 11.203 4.632 20.938 19.259 25.885 37.844l1.418 5.152-28.466-8.54.193 46.648 28.428 4.218-1.372 4.507c-4.799 16.385-14.429 26.61-25.571 26.207-13.453-.458-26.889-16.28-33.029-40.24l-15.287-2.319-27.129-4.165v255.701l66.791-34.62v-130.107l4.728-.404c4.731-.41 8.843 1.611 12.377 5.948 2.539 3.27 5.378 10.535 8.499 21.672l22.362 78.029 37.059-19.217-14.459-63.591zm-23.346-86.03c-1.193-3.137-2.119-7.027-2.768-11.67l9.589-.936c.363 3.993.925 6.803 1.682 8.429.754 1.618 1.706 2.505 2.851 2.668 1.195.17 2.181-.624 2.963-2.374.776-1.737 1.163-4.147 1.163-7.238 0-3.151-.372-5.669-1.121-7.561-.753-1.903-1.781-3.003-3.093-3.294-.704-.156-1.678.007-2.931.494l.471-13.743c.507.296.898.48 1.182.557 1.178.317 2.15-.218 2.927-1.599.771-1.371 1.155-3.142 1.155-5.317 0-2.082-.287-3.835-.863-5.265-.577-1.436-1.377-2.324-2.401-2.66-1.063-.349-1.932.055-2.604 1.219-.677 1.17-1.139 3.46-1.38 6.87l-9.053-6.072c.776-5.829 2.255-9.969 4.415-12.412 2.124-2.403 5.076-2.878 8.797-1.483 4.144 1.554 7.056 4.283 8.82 8.183 1.739 3.846 2.6 8.183 2.6 13.052 0 2.856-.348 5.341-1.049 7.467-.705 2.137-1.776 3.905-3.224 5.307 1.173.932 2.063 1.895 2.675 2.891.986 1.593 1.749 3.552 2.29 5.878.537 2.316.806 4.994.806 8.042 0 3.825-.443 7.421-1.337 10.811-.9 3.416-2.208 5.992-3.936 7.728-1.753 1.762-4.093 2.512-7.053 2.225-2.954-.286-5.333-1.269-7.103-2.96-1.794-1.716-3.288-4.127-4.47-7.237z"/><path fill="#4FB269" d="M131.021 128.705l4.966-6.564 2.465 10.76zM112.094 111.728l-5.32 7.472-3.42-11.7zM109.043 114.379c.969-9.345 6.388-15.12 12.726-13.287 6.118 1.77 11.031 10.08 11.876 19.275l3.314.807c-.854-12.041-7.186-23.158-15.191-25.598-8.38-2.552-15.586 5.241-16.599 17.859l3.874.944zM133.565 126.716c-1.035 8.398-5.843 14.044-11.796 12.965-6.157-1.116-11.448-9.012-12.629-18.461l-3.902-.879c1.249 12.753 8.326 23.492 16.531 24.854 7.844 1.302 14.082-6.474 15.135-17.728l-3.339-.751zM127.113 134.008s-6.947-.512-10.831-9.435c-3.358-7.703-1.193-18.847-1.193-18.847s8.636 1.982 11.687 8.637c2.998 6.538 1.84 18.365 1.84 18.365s-.283-7.341-3.867-14.45c-2.979-5.913-7.166-7.715-7.166-7.715s3.661 2.275 6.709 9.202c2.261 5.13 2.821 14.243 2.821 14.243z"/><path fill="#010202" d="M68.85 399.582l-68.386-35.401-.054-30.043-.006-3.713c-.018-10.085 1.293-16.417 3.966-19.03 2.72-2.66 8.116-2.706 16.469 0 8.737 2.829 14.807 6.662 17.896 11.444 3.146 4.872 4.752 13.153 4.775 24.781l.062 3.762.039 19.008 25.202 11.884.037 17.308zm-36.486-34.496l-.035-17.793c-.014-7.076-.695-11.826-2.036-14.239-1.331-2.394-4.427-4.486-9.192-6.253-5.294-1.964-8.49-2.402-9.708-1.367-1.208 1.028-1.804 4.649-1.792 10.875l.033 18.061 22.73 10.716zM.321 283.634l68.315 17.419.033 15.29-68.326-20.209-.022-12.5zM31.17 263.696l.028 14.058c-5.591-1.196-9.23-3.533-11.04-7.013-1.79-3.438-2.687-9.697-2.703-18.803-.019-9.911 1.052-16.513 3.234-19.842 2.211-3.372 6.526-4.87 13.109-4.442l34.684 2.261.033 15.276-7.847-1.55-.057.387c5.681 3.514 8.599 10.637 8.622 21.288.034 15.468-5.894 21.887-17.234 19.38-10.77-2.382-15.93-10.732-15.958-25.155-.02-9.628 1.833-15.269 5.617-16.947v-.247l-7.982-.846c-3.716-.392-6.133.124-7.307 1.535-1.165 1.402-1.74 4.475-1.731 9.227.011 6.873 2.162 10.678 6.532 11.433zm12.903-7.312c.016 8.065 2.428 12.53 7.337 13.414 3.487.627 5.811.182 6.922-1.35 1.12-1.543 1.676-5.101 1.665-10.665-.02-9.084-2.754-13.915-8.083-14.479-5.285-.555-7.86 3.808-7.841 13.08zM30.288 165.975l.026 13.414-.885.248c-2.241.451-3.622 1.334-4.164 2.651-.538 1.315-.803 4.423-.793 9.326.014 7.025 1.873 10.518 5.64 10.479 2.615-.026 4.189-.679 4.692-1.959.505-1.285.903-5.623 1.194-13.024.388-9.981 1.487-16.577 3.309-19.797 1.841-3.254 5.681-5.254 11.655-5.995 6.604-.817 11.329.752 14.019 4.773 2.73 4.08 4.123 11.821 4.147 23.177.023 10.913-1.204 18.366-3.659 22.323-2.422 3.904-6.878 5.731-13.22 5.526l-1.338-.044-.031-15.127c.743.203 1.339.326 1.787.363 4.815.563 7.261-3.714 7.242-12.837-.02-9.426-2.466-13.939-7.241-13.545-4.469.369-6.656 3.393-6.645 9.076.026 12.831-.999 21.283-3.055 25.318-2.034 3.989-6.196 5.868-12.335 5.676-5.318-.165-8.826-2.006-10.635-5.497-1.789-3.453-2.685-10.022-2.703-19.734-.018-9.174.825-15.423 2.538-18.773 1.731-3.388 5.181-5.398 10.455-6.018zM17.709 119.486l8.151-2.167.042 21.742 24.782-4.962c4.989-.999 7.531-3.691 7.521-8.058-.01-4.797-3.093-6.463-9.096-5.034l-2.077.494-.025-12.254 2.628-.717c2.444-.666 4.563-1.157 6.345-1.472 8.542-1.488 12.98 4.573 13.01 18.234.029 13.619-5.614 21.332-16.435 23.057l-26.626 4.246.014 7.329-8.156 1.12-.013-7.149-9.497 1.514-.023-12.813 9.495-1.901-.04-21.209zM0 102.719l8.004-2.688.023 12.8-8.005 2.363-.022-12.475zm17.666-5.935l50.49-16.961.033 15.25-50.498 14.906-.025-13.195zM47.017 34.487l-.029-14.32 1.802-.947 8.145-3.372c7.749-2.2 11.766 4.841 11.801 21.198.026 12.001-1.937 20.767-5.827 26.208-3.81 5.328-11.255 10.01-21.9 13.946-9.798 3.623-16.095 4.204-19.255 1.924-3.1-2.235-4.638-8.262-4.656-18.115-.018-9.506 1.074-16.492 3.298-21.008 2.255-4.577 6.634-8.584 13.312-12.075l.027 13.721c-5.514 2.659-8.196 7.753-8.182 15.343.011 5.39.867 8.414 2.581 9.08 1.733.673 6.052-.405 13.163-3.328 7.159-2.942 11.811-5.675 13.748-8.127 1.959-2.478 2.939-6.966 2.926-13.443-.011-5.093-.699-8.041-2.06-8.835-1.352-.787-4.343-.055-8.894 2.15z"/><path fill="#4FB269" d="M86.732 409.112l-3.253-1.694v-405.724l3.253-1.694zM89.985 407.418l-3.253 1.694v-409.112l3.253 1.694z"/></svg>